<svg width="300" height="18" viewBox="0 0 300 18" fill="none" xmlns="http://www.w3.org/2000/svg">
<path d="M4.112 18V6.516H0.368V18H4.112ZM8.54 0.719999H3.104V4.464H8.54C10.772 4.464 12.608 6.3 12.608 8.568V18H16.388V8.568C16.388 4.248 12.86 0.719999 8.54 0.719999ZM30.1198 0.683999C30.1198 0.683999 30.1198 0.683999 30.0837 0.683999C29.0037 0.683999 27.9957 1.08 27.2037 1.872C26.4477 2.628 26.0157 3.672 26.0157 4.752V18H34.9797C39.9118 18 43.9078 13.536 43.9078 8.028V0.719999L30.1198 0.683999ZM40.1277 8.028C40.1277 11.448 37.8238 14.256 34.9797 14.256H29.7597V4.752C29.7597 4.644 29.8317 4.572 29.8678 4.536C29.9037 4.464 29.9757 4.428 30.0837 4.428C30.0837 4.428 30.0837 4.428 30.1198 4.428L40.1277 4.464V8.028ZM71.2346 5.832C71.2346 3.024 69.0026 0.719999 66.2666 0.719999H53.3786V4.464H66.2666C66.9506 4.464 67.4546 5.076 67.4546 5.832C67.4546 6.588 66.9506 7.2 66.2666 7.2H53.3786V10.944H53.4146V18H57.1586V10.944H66.2666C69.0026 10.944 71.2346 8.676 71.2346 5.832ZM71.2346 18V11.52H67.4546V18H71.2346ZM80.81 0.719999V6.912H84.554V4.464H98.774V0.719999H80.81ZM80.81 12.312V18H84.554V12.312C84.554 11.484 85.238 10.836 86.03 10.836H92.762V7.092H86.03C83.15 7.092 80.81 9.432 80.81 12.312ZM122.711 8.064V0.719999H114.395C110.219 0.719999 106.799 3.888 106.799 7.776V18H110.543V11.628H116.267C117.059 11.628 117.779 11.916 118.319 12.42C118.607 12.708 118.931 13.176 118.931 13.86V18H122.711V13.86C122.711 12.348 122.063 10.872 120.947 9.756C119.723 8.532 118.031 7.848 116.231 7.848L110.543 7.884V7.776C110.543 5.976 112.271 4.464 114.395 4.464H118.931V8.064H122.711ZM152.963 18V5.004H149.219V18H152.963ZM155.699 0.719999H152.927V4.464H155.699C156.563 4.464 157.283 5.184 157.283 6.084V18H161.027V6.084C161.027 3.132 158.651 0.719999 155.699 0.719999ZM163.655 0.719999H161.243V4.464H163.655C164.519 4.464 165.239 5.184 165.239 6.084V18H169.019V6.084C169.019 3.132 166.607 0.719999 163.655 0.719999ZM194.534 8.064V0.719999H186.218C182.042 0.719999 178.622 3.888 178.622 7.776V18H182.366V11.628H188.09C188.882 11.628 189.602 11.916 190.142 12.42C190.43 12.708 190.754 13.176 190.754 13.86V18H194.534V13.86C194.534 12.348 193.886 10.872 192.77 9.756C191.546 8.532 189.854 7.848 188.054 7.848L182.366 7.884V7.776C182.366 5.976 184.094 4.464 186.218 4.464H190.754V8.064H194.534ZM216.828 10.944C217.296 10.944 217.692 11.34 217.692 11.808H221.472C221.472 9.288 219.384 7.2 216.828 7.2H208.476C207.828 7.2 207.288 6.588 207.288 5.832C207.288 5.076 207.828 4.464 208.476 4.464H221.4V0.719999H208.476C205.776 0.719999 203.544 3.024 203.544 5.832C203.544 8.676 205.776 10.944 208.476 10.944H216.828ZM221.472 18V14.256H205.416V18H221.472ZM236.146 4.464V0.719999H229.666V4.464H236.146ZM242.554 0.719999C239.062 0.719999 236.254 3.528 236.254 7.02V18H239.998V7.02C239.998 5.616 241.15 4.464 242.554 4.464H246.082V0.719999H242.554ZM272.414 18V14.256H254.522V18H272.414ZM259.706 0.719999C256.826 0.719999 254.486 3.06 254.486 5.94V8.964V12.348H266.438V8.568H258.23V5.94C258.23 5.112 258.878 4.464 259.706 4.464H272.45V0.719999H259.706ZM299.394 5.832C299.394 3.024 297.162 0.719999 294.426 0.719999H281.538V4.464H294.426C295.11 4.464 295.614 5.076 295.614 5.832C295.614 6.588 295.11 7.2 294.426 7.2H281.538V10.944H281.574V18H285.318V10.944H294.426C297.162 10.944 299.394 8.676 299.394 5.832ZM299.394 18V11.52H295.614V18H299.394Z" fill="white"/>
</svg>
